<svg class="visible-md visible-lg" width="100" height="49" viewBox="0 0 100 49" fill="none" xmlns="http://www.w3.org/2000/svg">
    <path d="M66.3971 32.3083C66.3971 31.8887 66.2568 31.5795 66.0021 31.3587C65.7473 31.1342 65.3892 31.0348 64.9129 31.0348C64.6101 31.0348 64.3627 31.0495 64.1744 31.0937V33.5891C64.3332 33.6296 64.5399 33.6517 64.8132 33.6517C65.3042 33.6517 65.6919 33.5302 65.9688 33.2947C66.2531 33.0554 66.3971 32.7242 66.3971 32.3083ZM67.49 32.2383C67.49 32.8787 67.3091 33.3903 66.9251 33.7658C66.4488 34.27 65.7399 34.5203 64.8021 34.5203C64.5289 34.5203 64.3258 34.5019 64.1707 34.4798V37.1519H63.1664V30.3244C63.5615 30.2103 64.1781 30.1698 64.8575 30.1698C65.7399 30.1698 66.3971 30.3575 66.8402 30.7367C67.287 31.1047 67.49 31.6163 67.49 32.2383ZM70.8795 33.1401C70.7724 33.1106 70.6875 33.1106 70.5989 33.1106C70.2075 33.1106 69.9084 33.2579 69.6647 33.556C69.4801 33.8026 69.3805 34.1375 69.3805 34.535V37.1519H68.2617V33.7253C68.2617 33.1585 68.2469 32.6322 68.2248 32.161H69.1958L69.2364 33.1106H69.2771C69.3805 32.7941 69.5724 32.5217 69.8457 32.3303C70.1078 32.1463 70.3737 32.058 70.6653 32.058C70.717 32.058 70.8019 32.0617 70.8869 32.0837V33.1401H70.8795ZM72.3933 34.1302C72.4265 33.7915 72.5447 33.4934 72.7219 33.2689C72.9508 32.9708 73.2425 32.8088 73.6154 32.8088C74.0216 32.8088 74.3022 32.9744 74.5052 33.2763C74.6529 33.5118 74.7342 33.8026 74.7268 34.1265H72.3933V34.1302ZM75.3508 32.8419C74.9705 32.3156 74.4277 32.0433 73.7077 32.0433C72.973 32.0433 72.3859 32.3156 71.9539 32.8456C71.5404 33.3499 71.3336 33.9792 71.3336 34.7301C71.3336 35.5067 71.5515 36.1066 71.9982 36.5741C72.4487 37.0341 73.0579 37.255 73.8333 37.255C74.4757 37.255 75.0406 37.1519 75.5058 36.9568L75.3434 36.1802C74.9335 36.3385 74.4831 36.4084 73.9846 36.4084C73.5305 36.4084 73.165 36.2907 72.8917 36.0625C72.5742 35.8085 72.4154 35.4257 72.397 34.9288H75.7495C75.7828 34.7963 75.7938 34.6233 75.7938 34.4246C75.7938 33.7915 75.6351 33.2763 75.3508 32.8419ZM83.6619 37.1519H82.5727V34.3583C82.5727 33.4235 82.2589 32.9708 81.6792 32.9708C81.4503 32.9708 81.2103 33.0812 81.022 33.3131C80.8485 33.5339 80.7525 33.8099 80.7525 34.1044V37.1519H79.678V34.2001C79.678 33.8283 79.5894 33.5302 79.4307 33.302C79.2867 33.0812 79.0541 32.9708 78.7476 32.9708C78.4485 32.9708 78.1901 33.0885 78.0055 33.3351C77.8061 33.5781 77.7027 33.8578 77.7027 34.1706V37.1482H76.6283V33.5854C76.6283 33.1474 76.6061 32.6653 76.595 32.1574H77.5292L77.5956 32.8935H77.6252C77.9722 32.334 78.4707 32.0506 79.1464 32.0506C79.822 32.0506 80.2946 32.3598 80.5309 32.9818H80.542C80.7045 32.7168 80.8965 32.507 81.1402 32.3451C81.4208 32.1537 81.6903 32.0469 82.0226 32.0469C82.4657 32.0469 82.8386 32.2052 83.1266 32.507C83.481 32.8714 83.6582 33.4345 83.6582 34.178V37.1519H83.6619ZM86.1505 37.1519H85.0355V32.1647H86.1505V37.1519ZM86.2834 30.652C86.2834 30.8507 86.2133 31.0053 86.0877 31.1231C85.9548 31.2482 85.7813 31.3219 85.5745 31.3219C85.3936 31.3219 85.2311 31.2446 85.113 31.1231C84.9874 30.9943 84.9247 30.8397 84.9247 30.652C84.9247 30.4643 84.9875 30.3171 85.1167 30.1772C85.2533 30.0594 85.401 29.9932 85.6004 29.9932C85.7924 29.9932 85.9511 30.0594 86.0877 30.1772C86.2133 30.3171 86.2834 30.4606 86.2834 30.652ZM91.7405 37.1519H90.7473L90.6882 36.3974H90.6735C90.3153 36.99 89.7873 37.2697 89.0784 37.2697C88.58 37.2697 88.148 37.1188 87.8563 36.8059C87.5166 36.4379 87.332 35.8674 87.332 35.1092V32.1647H88.4951V34.9104C88.4951 35.8748 88.8274 36.3422 89.4846 36.3422C89.9793 36.3422 90.319 36.1066 90.5147 35.6318C90.5627 35.5104 90.5812 35.3668 90.5812 35.2122V32.1647H91.6962V35.7275C91.6962 36.1876 91.7221 36.6698 91.7405 37.1519ZM99.9926 37.1519H98.9108V34.3583C98.9108 33.4235 98.597 32.9708 97.9545 32.9708C97.6554 32.9708 97.4191 33.0812 97.2382 33.3131C97.0499 33.5339 96.9539 33.8099 96.9539 34.1044V37.1519H95.8795V34.2001C95.8795 33.8283 95.7909 33.5302 95.6321 33.302C95.4844 33.0812 95.2444 32.9708 94.9491 32.9708C94.65 32.9708 94.4063 33.0885 94.2106 33.3351C94.0186 33.5781 93.9559 33.8578 93.9559 34.1706V37.1482H92.8962V33.5854C92.8962 33.1474 92.8888 32.6653 92.8629 32.1574H93.8155L93.8709 32.8935H93.9078C94.1811 32.334 94.6943 32.0506 95.3589 32.0506C96.0383 32.0506 96.5072 32.3598 96.7435 32.9818H96.7582C96.9207 32.7168 97.1164 32.507 97.3453 32.3451C97.6407 32.1537 97.9804 32.0469 98.3717 32.0469C98.8111 32.0469 99.1766 32.2052 99.4646 32.507C99.8191 32.8714 100 33.4345 100 34.178V37.1519H99.9926ZM68.9595 42.9672C68.9595 42.1722 68.4795 41.7821 67.5454 41.7747C67.191 41.7747 66.9251 41.8042 66.7479 41.852V44.2039H67.5233C67.9626 44.2039 68.306 44.0825 68.5645 43.8579C68.8266 43.6371 68.9595 43.3463 68.9595 42.9672ZM70.3515 47.9324H69.1626C69.0592 47.7299 68.9041 47.1742 68.7158 46.2835C68.6235 45.816 68.4759 45.4811 68.2802 45.3044C68.0882 45.1057 67.8002 45.01 67.431 45.01H66.7516V47.9324H65.6218V41.0938C66.135 41.0018 66.7331 40.9576 67.431 40.9576C68.3762 40.9576 69.074 41.1306 69.5097 41.5024C69.9306 41.8299 70.1226 42.2863 70.1226 42.8642C70.1226 43.2801 69.9897 43.6739 69.6943 43.9941C69.4691 44.2775 69.1663 44.4763 68.8008 44.6088V44.6382C69.2771 44.8075 69.6057 45.275 69.8051 46.0148C69.9638 46.5889 70.0487 46.9938 70.1189 47.1999C70.2075 47.5864 70.2924 47.8146 70.3515 47.9324ZM74.1028 44.9032C74.1139 44.572 74.0363 44.2996 73.8739 44.0493C73.6893 43.7512 73.3828 43.5966 72.984 43.5966C72.6333 43.5966 72.3268 43.7512 72.109 44.042C71.917 44.2812 71.8062 44.5683 71.7767 44.9032H74.1028ZM75.1772 45.2014C75.1772 45.3928 75.1551 45.5584 75.1255 45.6909H71.7767C71.7878 46.1878 71.9465 46.5816 72.2641 46.8282C72.5484 47.0674 72.8991 47.1778 73.3533 47.1778C73.8628 47.1778 74.3059 47.1079 74.7194 46.946L74.8855 47.7263C74.4203 47.925 73.8628 48.0317 73.2056 48.0317C72.4302 48.0317 71.821 47.8035 71.3779 47.3472C70.9349 46.8871 70.717 46.2798 70.717 45.5069C70.717 44.7523 70.9164 44.1193 71.3373 43.6224C71.7693 43.0813 72.3564 42.8163 73.0874 42.8163C73.8074 42.8163 74.3539 43.0813 74.7379 43.6224C75.0074 44.053 75.1772 44.572 75.1772 45.2014ZM79.2054 46.5006C79.2054 46.9533 79.0282 47.3251 78.6959 47.6121C78.3488 47.8919 77.8688 48.0317 77.2744 48.0317C76.6984 48.0317 76.2184 47.9213 75.816 47.6931L76.0523 46.8687C76.4363 47.0932 76.8498 47.1999 77.2929 47.1999C77.8504 47.1999 78.1495 46.9975 78.1495 46.5889C78.1495 46.4049 78.0793 46.2356 77.9575 46.1142C77.8282 46.0001 77.6104 45.8896 77.2929 45.7718C76.403 45.4369 75.9489 44.9732 75.9489 44.3401C75.9489 43.9132 76.1187 43.5561 76.4326 43.258C76.7649 42.982 77.2079 42.8347 77.7544 42.8347C78.2492 42.8347 78.6701 42.9341 79.0171 43.1329L78.7808 43.9205C78.4596 43.7402 78.1199 43.6445 77.7581 43.6445C77.5255 43.6445 77.3335 43.6997 77.2079 43.8101C77.0824 43.9205 77.0123 44.0641 77.0123 44.2297C77.0123 44.399 77.0935 44.5425 77.219 44.6493C77.3335 44.7523 77.5735 44.8701 77.8947 44.9916C78.7845 45.3155 79.2054 45.8123 79.2054 46.5006ZM83.2373 44.9032C83.2373 44.572 83.1598 44.2996 83.0121 44.0493C82.8127 43.7512 82.5321 43.5966 82.1223 43.5966C81.7678 43.5966 81.6017 43.7512 81.3617 44.042C81.1808 44.2812 81.07 44.5683 81.0294 44.9032H83.2373ZM84.3007 45.2014C84.3007 45.3928 84.2785 45.5584 84.2601 45.6909H81.0257C81.0368 46.1878 81.2103 46.5816 81.5131 46.8282C81.7125 47.0674 82.03 47.1778 82.4767 47.1778C82.9863 47.1778 83.4441 47.1079 83.8429 46.946L84.0164 47.7263C83.5438 47.925 82.9863 48.0317 82.3327 48.0317C81.6534 48.0317 81.0737 47.8035 80.6343 47.3472C80.1876 46.8871 79.9697 46.2798 79.9697 45.5069C79.9697 44.7523 80.1691 44.1193 80.5826 43.6224C81.0183 43.0813 81.6091 42.8163 82.2109 42.8163C82.9309 42.8163 83.4884 43.0813 83.8539 43.6224C84.153 44.053 84.3007 44.572 84.3007 45.2014ZM86.4496 47.9324H85.3234V40.6411H86.4496V47.9324ZM88.7978 47.9324H87.6237V40.6411H88.7978V47.9324ZM93.2728 44.9032C93.2765 44.572 93.1989 44.2996 93.0549 44.0493C92.8593 43.7512 92.5713 43.5966 92.1651 43.5966C91.807 43.5966 91.4968 43.7512 91.2716 44.042C91.087 44.2812 90.9725 44.5683 90.943 44.9032H93.2728ZM94.2623 45.2014C94.2623 45.3928 94.2512 45.5584 94.2291 45.6909H90.9393C90.9541 46.1878 91.1165 46.5816 91.423 46.8282C91.6962 47.0674 92.0765 47.1778 92.5196 47.1778C93.018 47.1778 93.4759 47.1079 93.8709 46.946L94.0039 47.7263C93.5792 47.925 93.018 48.0317 92.3756 48.0317C91.5965 48.0317 90.9762 47.8035 90.5369 47.3472C90.0901 46.8871 89.8796 46.2798 89.8796 45.5069C89.8796 44.7523 90.079 44.1193 90.4852 43.6224C90.9171 43.0813 91.5042 42.8163 92.2427 42.8163C92.9663 42.8163 93.5091 43.0813 93.8931 43.6224C94.1072 44.053 94.2623 44.572 94.2623 45.2014ZM97.9545 43.9095C97.8474 43.8947 97.7367 43.8763 97.6148 43.8763C97.2308 43.8763 96.9244 44.0199 96.7213 44.3291C96.5367 44.5793 96.4333 44.9069 96.4333 45.3118V47.936H95.3109V44.5021C95.3109 43.9389 95.3072 43.4126 95.274 42.9341H96.2376L96.2893 43.8837H96.3078C96.4259 43.5635 96.6142 43.2911 96.869 43.0997C97.1164 42.9304 97.3859 42.8347 97.6665 42.8347C97.7921 42.8347 97.877 42.8421 97.9508 42.8568V43.9095H97.9545Z" fill="white"></path>
    <path d="M66.3971 32.3083C66.3971 31.8887 66.2568 31.5795 66.0021 31.3587C65.7473 31.1342 65.3892 31.0348 64.9129 31.0348C64.6101 31.0348 64.3627 31.0495 64.1744 31.0937V33.5891C64.3332 33.6296 64.5399 33.6517 64.8132 33.6517C65.3042 33.6517 65.6919 33.5302 65.9688 33.2947C66.2531 33.0554 66.3971 32.7242 66.3971 32.3083ZM67.49 32.2383C67.49 32.8787 67.3091 33.3903 66.9251 33.7658C66.4488 34.27 65.7399 34.5203 64.8021 34.5203C64.5289 34.5203 64.3258 34.5019 64.1707 34.4798V37.1519H63.1664V30.3244C63.5615 30.2103 64.1781 30.1698 64.8575 30.1698C65.7399 30.1698 66.3971 30.3575 66.8402 30.7367C67.287 31.1047 67.49 31.6163 67.49 32.2383ZM70.8795 33.1401C70.7724 33.1106 70.6875 33.1106 70.5989 33.1106C70.2075 33.1106 69.9084 33.2579 69.6647 33.556C69.4801 33.8026 69.3805 34.1375 69.3805 34.535V37.1519H68.2617V33.7253C68.2617 33.1585 68.2469 32.6322 68.2248 32.161H69.1958L69.2364 33.1106H69.2771C69.3805 32.7941 69.5724 32.5217 69.8457 32.3303C70.1078 32.1463 70.3737 32.058 70.6653 32.058C70.717 32.058 70.8019 32.0617 70.8869 32.0837V33.1401H70.8795ZM72.3933 34.1302C72.4265 33.7915 72.5447 33.4934 72.7219 33.2689C72.9508 32.9708 73.2425 32.8088 73.6154 32.8088C74.0216 32.8088 74.3022 32.9744 74.5052 33.2763C74.6529 33.5118 74.7342 33.8026 74.7268 34.1265H72.3933V34.1302ZM75.3508 32.8419C74.9705 32.3156 74.4277 32.0433 73.7077 32.0433C72.973 32.0433 72.3859 32.3156 71.9539 32.8456C71.5404 33.3499 71.3336 33.9792 71.3336 34.7301C71.3336 35.5067 71.5515 36.1066 71.9982 36.5741C72.4487 37.0341 73.0579 37.255 73.8333 37.255C74.4757 37.255 75.0406 37.1519 75.5058 36.9568L75.3434 36.1802C74.9335 36.3385 74.4831 36.4084 73.9846 36.4084C73.5305 36.4084 73.165 36.2907 72.8917 36.0625C72.5742 35.8085 72.4154 35.4257 72.397 34.9288H75.7495C75.7828 34.7963 75.7938 34.6233 75.7938 34.4246C75.7938 33.7915 75.6351 33.2763 75.3508 32.8419ZM83.6619 37.1519H82.5727V34.3583C82.5727 33.4235 82.2589 32.9708 81.6792 32.9708C81.4503 32.9708 81.2103 33.0812 81.022 33.3131C80.8485 33.5339 80.7525 33.8099 80.7525 34.1044V37.1519H79.678V34.2001C79.678 33.8283 79.5894 33.5302 79.4307 33.302C79.2867 33.0812 79.0541 32.9708 78.7476 32.9708C78.4485 32.9708 78.1901 33.0885 78.0055 33.3351C77.8061 33.5781 77.7027 33.8578 77.7027 34.1706V37.1482H76.6283V33.5854C76.6283 33.1474 76.6061 32.6653 76.595 32.1574H77.5292L77.5956 32.8935H77.6252C77.9722 32.334 78.4707 32.0506 79.1464 32.0506C79.822 32.0506 80.2946 32.3598 80.5309 32.9818H80.542C80.7045 32.7168 80.8965 32.507 81.1402 32.3451C81.4208 32.1537 81.6903 32.0469 82.0226 32.0469C82.4657 32.0469 82.8386 32.2052 83.1266 32.507C83.481 32.8714 83.6582 33.4345 83.6582 34.178V37.1519H83.6619ZM86.1505 37.1519H85.0355V32.1647H86.1505V37.1519ZM86.2834 30.652C86.2834 30.8507 86.2133 31.0053 86.0877 31.1231C85.9548 31.2482 85.7813 31.3219 85.5745 31.3219C85.3936 31.3219 85.2311 31.2446 85.113 31.1231C84.9874 30.9943 84.9247 30.8397 84.9247 30.652C84.9247 30.4643 84.9875 30.3171 85.1167 30.1772C85.2533 30.0594 85.401 29.9932 85.6004 29.9932C85.7924 29.9932 85.9511 30.0594 86.0877 30.1772C86.2133 30.3171 86.2834 30.4606 86.2834 30.652ZM91.7405 37.1519H90.7473L90.6882 36.3974H90.6735C90.3153 36.99 89.7873 37.2697 89.0784 37.2697C88.58 37.2697 88.148 37.1188 87.8563 36.8059C87.5166 36.4379 87.332 35.8674 87.332 35.1092V32.1647H88.4951V34.9104C88.4951 35.8748 88.8274 36.3422 89.4846 36.3422C89.9793 36.3422 90.319 36.1066 90.5147 35.6318C90.5627 35.5104 90.5812 35.3668 90.5812 35.2122V32.1647H91.6962V35.7275C91.6962 36.1876 91.7221 36.6698 91.7405 37.1519ZM99.9926 37.1519H98.9108V34.3583C98.9108 33.4235 98.597 32.9708 97.9545 32.9708C97.6554 32.9708 97.4191 33.0812 97.2382 33.3131C97.0499 33.5339 96.9539 33.8099 96.9539 34.1044V37.1519H95.8795V34.2001C95.8795 33.8283 95.7909 33.5302 95.6321 33.302C95.4844 33.0812 95.2444 32.9708 94.9491 32.9708C94.65 32.9708 94.4063 33.0885 94.2106 33.3351C94.0186 33.5781 93.9559 33.8578 93.9559 34.1706V37.1482H92.8962V33.5854C92.8962 33.1474 92.8888 32.6653 92.8629 32.1574H93.8155L93.8709 32.8935H93.9078C94.1811 32.334 94.6943 32.0506 95.3589 32.0506C96.0383 32.0506 96.5072 32.3598 96.7435 32.9818H96.7582C96.9207 32.7168 97.1164 32.507 97.3453 32.3451C97.6407 32.1537 97.9804 32.0469 98.3717 32.0469C98.8111 32.0469 99.1766 32.2052 99.4646 32.507C99.8191 32.8714 100 33.4345 100 34.178V37.1519H99.9926ZM68.9595 42.9672C68.9595 42.1722 68.4795 41.7821 67.5454 41.7747C67.191 41.7747 66.9251 41.8042 66.7479 41.852V44.2039H67.5233C67.9626 44.2039 68.306 44.0825 68.5645 43.8579C68.8266 43.6371 68.9595 43.3463 68.9595 42.9672ZM70.3515 47.9324H69.1626C69.0592 47.7299 68.9041 47.1742 68.7158 46.2835C68.6235 45.816 68.4759 45.4811 68.2802 45.3044C68.0882 45.1057 67.8002 45.01 67.431 45.01H66.7516V47.9324H65.6218V41.0938C66.135 41.0018 66.7331 40.9576 67.431 40.9576C68.3762 40.9576 69.074 41.1306 69.5097 41.5024C69.9306 41.8299 70.1226 42.2863 70.1226 42.8642C70.1226 43.2801 69.9897 43.6739 69.6943 43.9941C69.4691 44.2775 69.1663 44.4763 68.8008 44.6088V44.6382C69.2771 44.8075 69.6057 45.275 69.8051 46.0148C69.9638 46.5889 70.0487 46.9938 70.1189 47.1999C70.2075 47.5864 70.2924 47.8146 70.3515 47.9324ZM74.1028 44.9032C74.1139 44.572 74.0363 44.2996 73.8739 44.0493C73.6893 43.7512 73.3828 43.5966 72.984 43.5966C72.6333 43.5966 72.3268 43.7512 72.109 44.042C71.917 44.2812 71.8062 44.5683 71.7767 44.9032H74.1028ZM75.1772 45.2014C75.1772 45.3928 75.1551 45.5584 75.1255 45.6909H71.7767C71.7878 46.1878 71.9465 46.5816 72.2641 46.8282C72.5484 47.0674 72.8991 47.1778 73.3533 47.1778C73.8628 47.1778 74.3059 47.1079 74.7194 46.946L74.8855 47.7263C74.4203 47.925 73.8628 48.0317 73.2056 48.0317C72.4302 48.0317 71.821 47.8035 71.3779 47.3472C70.9349 46.8871 70.717 46.2798 70.717 45.5069C70.717 44.7523 70.9164 44.1193 71.3373 43.6224C71.7693 43.0813 72.3564 42.8163 73.0874 42.8163C73.8074 42.8163 74.3539 43.0813 74.7379 43.6224C75.0074 44.053 75.1772 44.572 75.1772 45.2014ZM79.2054 46.5006C79.2054 46.9533 79.0282 47.3251 78.6959 47.6121C78.3488 47.8919 77.8688 48.0317 77.2744 48.0317C76.6984 48.0317 76.2184 47.9213 75.816 47.6931L76.0523 46.8687C76.4363 47.0932 76.8498 47.1999 77.2929 47.1999C77.8504 47.1999 78.1495 46.9975 78.1495 46.5889C78.1495 46.4049 78.0793 46.2356 77.9575 46.1142C77.8282 46.0001 77.6104 45.8896 77.2929 45.7718C76.403 45.4369 75.9489 44.9732 75.9489 44.3401C75.9489 43.9132 76.1187 43.5561 76.4326 43.258C76.7649 42.982 77.2079 42.8347 77.7544 42.8347C78.2492 42.8347 78.6701 42.9341 79.0171 43.1329L78.7808 43.9205C78.4596 43.7402 78.1199 43.6445 77.7581 43.6445C77.5255 43.6445 77.3335 43.6997 77.2079 43.8101C77.0824 43.9205 77.0123 44.0641 77.0123 44.2297C77.0123 44.399 77.0935 44.5425 77.219 44.6493C77.3335 44.7523 77.5735 44.8701 77.8947 44.9916C78.7845 45.3155 79.2054 45.8123 79.2054 46.5006ZM83.2373 44.9032C83.2373 44.572 83.1598 44.2996 83.0121 44.0493C82.8127 43.7512 82.5321 43.5966 82.1223 43.5966C81.7678 43.5966 81.6017 43.7512 81.3617 44.042C81.1808 44.2812 81.07 44.5683 81.0294 44.9032H83.2373ZM84.3007 45.2014C84.3007 45.3928 84.2785 45.5584 84.2601 45.6909H81.0257C81.0368 46.1878 81.2103 46.5816 81.5131 46.8282C81.7125 47.0674 82.03 47.1778 82.4767 47.1778C82.9863 47.1778 83.4441 47.1079 83.8429 46.946L84.0164 47.7263C83.5438 47.925 82.9863 48.0317 82.3327 48.0317C81.6534 48.0317 81.0737 47.8035 80.6343 47.3472C80.1876 46.8871 79.9697 46.2798 79.9697 45.5069C79.9697 44.7523 80.1691 44.1193 80.5826 43.6224C81.0183 43.0813 81.6091 42.8163 82.2109 42.8163C82.9309 42.8163 83.4884 43.0813 83.8539 43.6224C84.153 44.053 84.3007 44.572 84.3007 45.2014ZM86.4496 47.9324H85.3234V40.6411H86.4496V47.9324ZM88.7978 47.9324H87.6237V40.6411H88.7978V47.9324ZM93.2728 44.9032C93.2765 44.572 93.1989 44.2996 93.0549 44.0493C92.8593 43.7512 92.5713 43.5966 92.1651 43.5966C91.807 43.5966 91.4968 43.7512 91.2716 44.042C91.087 44.2812 90.9725 44.5683 90.943 44.9032H93.2728ZM94.2623 45.2014C94.2623 45.3928 94.2512 45.5584 94.2291 45.6909H90.9393C90.9541 46.1878 91.1165 46.5816 91.423 46.8282C91.6962 47.0674 92.0765 47.1778 92.5196 47.1778C93.018 47.1778 93.4759 47.1079 93.8709 46.946L94.0039 47.7263C93.5792 47.925 93.018 48.0317 92.3756 48.0317C91.5965 48.0317 90.9762 47.8035 90.5369 47.3472C90.0901 46.8871 89.8796 46.2798 89.8796 45.5069C89.8796 44.7523 90.079 44.1193 90.4852 43.6224C90.9171 43.0813 91.5042 42.8163 92.2427 42.8163C92.9663 42.8163 93.5091 43.0813 93.8931 43.6224C94.1072 44.053 94.2623 44.572 94.2623 45.2014ZM97.9545 43.9095C97.8474 43.8947 97.7367 43.8763 97.6148 43.8763C97.2308 43.8763 96.9244 44.0199 96.7213 44.3291C96.5367 44.5793 96.4333 44.9069 96.4333 45.3118V47.936H95.3109V44.5021C95.3109 43.9389 95.3072 43.4126 95.274 42.9341H96.2376L96.2893 43.8837H96.3078C96.4259 43.5635 96.6142 43.2911 96.869 43.0997C97.1164 42.9304 97.3859 42.8347 97.6665 42.8347C97.7921 42.8347 97.877 42.8421 97.9508 42.8568V43.9095H97.9545Z" fill="#EBEBEB" fill-opacity="0.5"></path>
    <path d="M66.3971 32.3083C66.3971 31.8887 66.2568 31.5795 66.0021 31.3587C65.7473 31.1342 65.3892 31.0348 64.9129 31.0348C64.6101 31.0348 64.3627 31.0495 64.1744 31.0937V33.5891C64.3332 33.6296 64.5399 33.6517 64.8132 33.6517C65.3042 33.6517 65.6919 33.5302 65.9688 33.2947C66.2531 33.0554 66.3971 32.7242 66.3971 32.3083ZM67.49 32.2383C67.49 32.8787 67.3091 33.3903 66.9251 33.7658C66.4488 34.27 65.7399 34.5203 64.8021 34.5203C64.5289 34.5203 64.3258 34.5019 64.1707 34.4798V37.1519H63.1664V30.3244C63.5615 30.2103 64.1781 30.1698 64.8575 30.1698C65.7399 30.1698 66.3971 30.3575 66.8402 30.7367C67.287 31.1047 67.49 31.6163 67.49 32.2383ZM70.8795 33.1401C70.7724 33.1106 70.6875 33.1106 70.5989 33.1106C70.2075 33.1106 69.9084 33.2579 69.6647 33.556C69.4801 33.8026 69.3805 34.1375 69.3805 34.535V37.1519H68.2617V33.7253C68.2617 33.1585 68.2469 32.6322 68.2248 32.161H69.1958L69.2364 33.1106H69.2771C69.3805 32.7941 69.5724 32.5217 69.8457 32.3303C70.1078 32.1463 70.3737 32.058 70.6653 32.058C70.717 32.058 70.8019 32.0617 70.8869 32.0837V33.1401H70.8795ZM72.3933 34.1302C72.4265 33.7915 72.5447 33.4934 72.7219 33.2689C72.9508 32.9708 73.2425 32.8088 73.6154 32.8088C74.0216 32.8088 74.3022 32.9744 74.5052 33.2763C74.6529 33.5118 74.7342 33.8026 74.7268 34.1265H72.3933V34.1302ZM75.3508 32.8419C74.9705 32.3156 74.4277 32.0433 73.7077 32.0433C72.973 32.0433 72.3859 32.3156 71.9539 32.8456C71.5404 33.3499 71.3336 33.9792 71.3336 34.7301C71.3336 35.5067 71.5515 36.1066 71.9982 36.5741C72.4487 37.0341 73.0579 37.255 73.8333 37.255C74.4757 37.255 75.0406 37.1519 75.5058 36.9568L75.3434 36.1802C74.9335 36.3385 74.4831 36.4084 73.9846 36.4084C73.5305 36.4084 73.165 36.2907 72.8917 36.0625C72.5742 35.8085 72.4154 35.4257 72.397 34.9288H75.7495C75.7828 34.7963 75.7938 34.6233 75.7938 34.4246C75.7938 33.7915 75.6351 33.2763 75.3508 32.8419ZM83.6619 37.1519H82.5727V34.3583C82.5727 33.4235 82.2589 32.9708 81.6792 32.9708C81.4503 32.9708 81.2103 33.0812 81.022 33.3131C80.8485 33.5339 80.7525 33.8099 80.7525 34.1044V37.1519H79.678V34.2001C79.678 33.8283 79.5894 33.5302 79.4307 33.302C79.2867 33.0812 79.0541 32.9708 78.7476 32.9708C78.4485 32.9708 78.1901 33.0885 78.0055 33.3351C77.8061 33.5781 77.7027 33.8578 77.7027 34.1706V37.1482H76.6283V33.5854C76.6283 33.1474 76.6061 32.6653 76.595 32.1574H77.5292L77.5956 32.8935H77.6252C77.9722 32.334 78.4707 32.0506 79.1464 32.0506C79.822 32.0506 80.2946 32.3598 80.5309 32.9818H80.542C80.7045 32.7168 80.8965 32.507 81.1402 32.3451C81.4208 32.1537 81.6903 32.0469 82.0226 32.0469C82.4657 32.0469 82.8386 32.2052 83.1266 32.507C83.481 32.8714 83.6582 33.4345 83.6582 34.178V37.1519H83.6619ZM86.1505 37.1519H85.0355V32.1647H86.1505V37.1519ZM86.2834 30.652C86.2834 30.8507 86.2133 31.0053 86.0877 31.1231C85.9548 31.2482 85.7813 31.3219 85.5745 31.3219C85.3936 31.3219 85.2311 31.2446 85.113 31.1231C84.9874 30.9943 84.9247 30.8397 84.9247 30.652C84.9247 30.4643 84.9875 30.3171 85.1167 30.1772C85.2533 30.0594 85.401 29.9932 85.6004 29.9932C85.7924 29.9932 85.9511 30.0594 86.0877 30.1772C86.2133 30.3171 86.2834 30.4606 86.2834 30.652ZM91.7405 37.1519H90.7473L90.6882 36.3974H90.6735C90.3153 36.99 89.7873 37.2697 89.0784 37.2697C88.58 37.2697 88.148 37.1188 87.8563 36.8059C87.5166 36.4379 87.332 35.8674 87.332 35.1092V32.1647H88.4951V34.9104C88.4951 35.8748 88.8274 36.3422 89.4846 36.3422C89.9793 36.3422 90.319 36.1066 90.5147 35.6318C90.5627 35.5104 90.5812 35.3668 90.5812 35.2122V32.1647H91.6962V35.7275C91.6962 36.1876 91.7221 36.6698 91.7405 37.1519ZM99.9926 37.1519H98.9108V34.3583C98.9108 33.4235 98.597 32.9708 97.9545 32.9708C97.6554 32.9708 97.4191 33.0812 97.2382 33.3131C97.0499 33.5339 96.9539 33.8099 96.9539 34.1044V37.1519H95.8795V34.2001C95.8795 33.8283 95.7909 33.5302 95.6321 33.302C95.4844 33.0812 95.2444 32.9708 94.9491 32.9708C94.65 32.9708 94.4063 33.0885 94.2106 33.3351C94.0186 33.5781 93.9559 33.8578 93.9559 34.1706V37.1482H92.8962V33.5854C92.8962 33.1474 92.8888 32.6653 92.8629 32.1574H93.8155L93.8709 32.8935H93.9078C94.1811 32.334 94.6943 32.0506 95.3589 32.0506C96.0383 32.0506 96.5072 32.3598 96.7435 32.9818H96.7582C96.9207 32.7168 97.1164 32.507 97.3453 32.3451C97.6407 32.1537 97.9804 32.0469 98.3717 32.0469C98.8111 32.0469 99.1766 32.2052 99.4646 32.507C99.8191 32.8714 100 33.4345 100 34.178V37.1519H99.9926ZM68.9595 42.9672C68.9595 42.1722 68.4795 41.7821 67.5454 41.7747C67.191 41.7747 66.9251 41.8042 66.7479 41.852V44.2039H67.5233C67.9626 44.2039 68.306 44.0825 68.5645 43.8579C68.8266 43.6371 68.9595 43.3463 68.9595 42.9672ZM70.3515 47.9324H69.1626C69.0592 47.7299 68.9041 47.1742 68.7158 46.2835C68.6235 45.816 68.4759 45.4811 68.2802 45.3044C68.0882 45.1057 67.8002 45.01 67.431 45.01H66.7516V47.9324H65.6218V41.0938C66.135 41.0018 66.7331 40.9576 67.431 40.9576C68.3762 40.9576 69.074 41.1306 69.5097 41.5024C69.9306 41.8299 70.1226 42.2863 70.1226 42.8642C70.1226 43.2801 69.9897 43.6739 69.6943 43.9941C69.4691 44.2775 69.1663 44.4763 68.8008 44.6088V44.6382C69.2771 44.8075 69.6057 45.275 69.8051 46.0148C69.9638 46.5889 70.0487 46.9938 70.1189 47.1999C70.2075 47.5864 70.2924 47.8146 70.3515 47.9324ZM74.1028 44.9032C74.1139 44.572 74.0363 44.2996 73.8739 44.0493C73.6893 43.7512 73.3828 43.5966 72.984 43.5966C72.6333 43.5966 72.3268 43.7512 72.109 44.042C71.917 44.2812 71.8062 44.5683 71.7767 44.9032H74.1028ZM75.1772 45.2014C75.1772 45.3928 75.1551 45.5584 75.1255 45.6909H71.7767C71.7878 46.1878 71.9465 46.5816 72.2641 46.8282C72.5484 47.0674 72.8991 47.1778 73.3533 47.1778C73.8628 47.1778 74.3059 47.1079 74.7194 46.946L74.8855 47.7263C74.4203 47.925 73.8628 48.0317 73.2056 48.0317C72.4302 48.0317 71.821 47.8035 71.3779 47.3472C70.9349 46.8871 70.717 46.2798 70.717 45.5069C70.717 44.7523 70.9164 44.1193 71.3373 43.6224C71.7693 43.0813 72.3564 42.8163 73.0874 42.8163C73.8074 42.8163 74.3539 43.0813 74.7379 43.6224C75.0074 44.053 75.1772 44.572 75.1772 45.2014ZM79.2054 46.5006C79.2054 46.9533 79.0282 47.3251 78.6959 47.6121C78.3488 47.8919 77.8688 48.0317 77.2744 48.0317C76.6984 48.0317 76.2184 47.9213 75.816 47.6931L76.0523 46.8687C76.4363 47.0932 76.8498 47.1999 77.2929 47.1999C77.8504 47.1999 78.1495 46.9975 78.1495 46.5889C78.1495 46.4049 78.0793 46.2356 77.9575 46.1142C77.8282 46.0001 77.6104 45.8896 77.2929 45.7718C76.403 45.4369 75.9489 44.9732 75.9489 44.3401C75.9489 43.9132 76.1187 43.5561 76.4326 43.258C76.7649 42.982 77.2079 42.8347 77.7544 42.8347C78.2492 42.8347 78.6701 42.9341 79.0171 43.1329L78.7808 43.9205C78.4596 43.7402 78.1199 43.6445 77.7581 43.6445C77.5255 43.6445 77.3335 43.6997 77.2079 43.8101C77.0824 43.9205 77.0123 44.0641 77.0123 44.2297C77.0123 44.399 77.0935 44.5425 77.219 44.6493C77.3335 44.7523 77.5735 44.8701 77.8947 44.9916C78.7845 45.3155 79.2054 45.8123 79.2054 46.5006ZM83.2373 44.9032C83.2373 44.572 83.1598 44.2996 83.0121 44.0493C82.8127 43.7512 82.5321 43.5966 82.1223 43.5966C81.7678 43.5966 81.6017 43.7512 81.3617 44.042C81.1808 44.2812 81.07 44.5683 81.0294 44.9032H83.2373ZM84.3007 45.2014C84.3007 45.3928 84.2785 45.5584 84.2601 45.6909H81.0257C81.0368 46.1878 81.2103 46.5816 81.5131 46.8282C81.7125 47.0674 82.03 47.1778 82.4767 47.1778C82.9863 47.1778 83.4441 47.1079 83.8429 46.946L84.0164 47.7263C83.5438 47.925 82.9863 48.0317 82.3327 48.0317C81.6534 48.0317 81.0737 47.8035 80.6343 47.3472C80.1876 46.8871 79.9697 46.2798 79.9697 45.5069C79.9697 44.7523 80.1691 44.1193 80.5826 43.6224C81.0183 43.0813 81.6091 42.8163 82.2109 42.8163C82.9309 42.8163 83.4884 43.0813 83.8539 43.6224C84.153 44.053 84.3007 44.572 84.3007 45.2014ZM86.4496 47.9324H85.3234V40.6411H86.4496V47.9324ZM88.7978 47.9324H87.6237V40.6411H88.7978V47.9324ZM93.2728 44.9032C93.2765 44.572 93.1989 44.2996 93.0549 44.0493C92.8593 43.7512 92.5713 43.5966 92.1651 43.5966C91.807 43.5966 91.4968 43.7512 91.2716 44.042C91.087 44.2812 90.9725 44.5683 90.943 44.9032H93.2728ZM94.2623 45.2014C94.2623 45.3928 94.2512 45.5584 94.2291 45.6909H90.9393C90.9541 46.1878 91.1165 46.5816 91.423 46.8282C91.6962 47.0674 92.0765 47.1778 92.5196 47.1778C93.018 47.1778 93.4759 47.1079 93.8709 46.946L94.0039 47.7263C93.5792 47.925 93.018 48.0317 92.3756 48.0317C91.5965 48.0317 90.9762 47.8035 90.5369 47.3472C90.0901 46.8871 89.8796 46.2798 89.8796 45.5069C89.8796 44.7523 90.079 44.1193 90.4852 43.6224C90.9171 43.0813 91.5042 42.8163 92.2427 42.8163C92.9663 42.8163 93.5091 43.0813 93.8931 43.6224C94.1072 44.053 94.2623 44.572 94.2623 45.2014ZM97.9545 43.9095C97.8474 43.8947 97.7367 43.8763 97.6148 43.8763C97.2308 43.8763 96.9244 44.0199 96.7213 44.3291C96.5367 44.5793 96.4333 44.9069 96.4333 45.3118V47.936H95.3109V44.5021C95.3109 43.9389 95.3072 43.4126 95.274 42.9341H96.2376L96.2893 43.8837H96.3078C96.4259 43.5635 96.6142 43.2911 96.869 43.0997C97.1164 42.9304 97.3859 42.8347 97.6665 42.8347C97.7921 42.8347 97.877 42.8421 97.9508 42.8568V43.9095H97.9545Z" fill="#F5F5F7"></path>
    <path d="M84.9357 3.9897C85.7849 2.97754 86.3351 1.54579 86.1874 0.158203C84.9653 0.19869 83.4921 0.956892 82.6724 1.98746C81.8675 2.8892 81.3248 4.30991 81.5094 5.66805C82.7352 5.77847 84.0791 5.00922 84.9357 3.9897Z" fill="white"></path>
    <path d="M91.1608 17.4938C91.1424 17.5822 90.6698 19.1979 89.5473 20.9094C88.5246 22.3927 87.4501 23.806 85.8551 23.8502C84.2195 23.8649 83.7025 22.9301 81.8712 22.9301C80.1691 22.9301 79.5931 23.8097 78.083 23.8649C76.5138 23.9312 75.3323 22.3375 74.2985 20.8505C72.253 17.8729 70.6949 12.5361 72.781 9.0064C73.8406 7.19187 75.7163 6.03984 77.747 6.0288C79.294 5.97727 80.7451 7.05201 81.6534 7.05201C82.5247 7.05201 84.2675 5.76379 86.1653 5.95519C86.9037 5.98463 89.1523 6.27172 90.5295 8.32917C90.4224 8.38806 87.8932 9.84557 87.9264 12.7348C87.9671 16.3492 91.1276 17.4865 91.1608 17.4938Z" fill="white"></path>
    <path d="M91.1608 17.4938C91.1424 17.5822 90.6698 19.1979 89.5473 20.9094C88.5246 22.3927 87.4501 23.806 85.8551 23.8502C84.2195 23.8649 83.7025 22.9301 81.8712 22.9301C80.1691 22.9301 79.5931 23.8097 78.083 23.8649C76.5138 23.9312 75.3323 22.3375 74.2985 20.8505C72.253 17.8729 70.6949 12.5361 72.781 9.0064C73.8406 7.19187 75.7163 6.03984 77.747 6.0288C79.294 5.97727 80.7451 7.05201 81.6534 7.05201C82.5247 7.05201 84.2675 5.76379 86.1653 5.95519C86.9037 5.98463 89.1523 6.27172 90.5295 8.32917C90.4224 8.38806 87.8932 9.84557 87.9264 12.7348C87.9671 16.3492 91.1276 17.4865 91.1608 17.4938Z" fill="#EBEBEB" fill-opacity="0.5"></path>
    <path d="M91.1608 17.4938C91.1424 17.5822 90.6698 19.1979 89.5473 20.9094C88.5246 22.3927 87.4501 23.806 85.8551 23.8502C84.2195 23.8649 83.7025 22.9301 81.8712 22.9301C80.1691 22.9301 79.5931 23.8097 78.083 23.8649C76.5138 23.9312 75.3323 22.3375 74.2985 20.8505C72.253 17.8729 70.6949 12.5361 72.781 9.0064C73.8406 7.19187 75.7163 6.03984 77.747 6.0288C79.294 5.97727 80.7451 7.05201 81.6534 7.05201C82.5247 7.05201 84.2675 5.76379 86.1653 5.95519C86.9037 5.98463 89.1523 6.27172 90.5295 8.32917C90.4224 8.38806 87.8932 9.84557 87.9264 12.7348C87.9671 16.3492 91.1276 17.4865 91.1608 17.4938Z" fill="#F5F5F7"></path>
    <path d="M54.5451 0V48.1936" stroke="white" stroke-width="1.055" stroke-miterlimit="10"></path>
    <path d="M1.29228 17.7736C0.579678 17.7736 0 18.3514 0 19.0618C0 19.7721 0.579678 20.35 1.29228 20.35C2.00487 20.35 2.58455 19.7721 2.58455 19.0618C2.58455 18.3514 2.00487 17.7736 1.29228 17.7736Z" fill="white"></path>
    <path d="M2.42581 20.9388H0.184631V28.992H2.42581V20.9388Z" fill="white"></path>
    <path d="M10.0465 22.5804C9.87296 22.7055 9.68096 22.7976 9.4742 22.8564C9.26374 22.9117 9.05698 22.9411 8.8576 22.9411H6.64965V19.6396H8.88714C9.13082 19.6396 9.35974 19.6654 9.57389 19.7132C9.77696 19.7611 9.95788 19.8457 10.1093 19.9672C10.2643 20.0886 10.3862 20.2543 10.4785 20.4641C10.5708 20.6812 10.6188 20.9573 10.6188 21.2885C10.6188 21.6087 10.5634 21.8737 10.46 22.0835C10.3529 22.2896 10.2163 22.4553 10.0465 22.5804ZM12.1178 19.0102C11.8372 18.6569 11.4385 18.3588 10.9252 18.1269C10.4157 17.895 9.75481 17.7772 8.96098 17.7772H4.42325V28.992H6.64596V24.8072H8.96098C9.7585 24.8072 10.4157 24.6931 10.9252 24.4649C11.4385 24.2367 11.8372 23.9422 12.1178 23.5889C12.3947 23.2355 12.5904 22.8491 12.6901 22.4369C12.7898 22.0357 12.8415 21.6529 12.8415 21.3069C12.8415 20.9609 12.7898 20.5782 12.6901 20.1696C12.5904 19.75 12.3984 19.3599 12.1178 19.0102Z" fill="white"></path>
    <path d="M16.0833 17.7736H14.0304V28.9883H16.0833V17.7736Z" fill="white"></path>
    <path d="M29.8294 27.3431C28.5261 27.3431 27.7802 26.3494 27.7802 24.6158C27.7802 22.9117 28.5445 21.8958 29.8294 21.8958C30.8596 21.8958 31.5537 22.5547 31.7826 23.6993H33.7506C33.4293 21.5756 31.9598 20.2469 29.8257 20.2469C27.3963 20.2469 25.8271 21.9584 25.8271 24.6121C25.8271 27.2695 27.3963 28.9847 29.8257 28.9847C31.7715 28.9847 33.134 27.9357 33.6176 26.1617H31.5906C31.2731 26.9272 30.6676 27.3431 29.8294 27.3431Z" fill="white"></path>
    <path d="M38.9418 21.8958C39.9683 21.8958 40.6624 22.5547 40.895 23.6993H36.9776C37.2102 22.5547 37.908 21.8958 38.9418 21.8958ZM38.9418 27.3431C37.7935 27.3431 37.0772 26.5665 36.9259 25.1937H40.4335H40.9541H42.9109C42.9257 25.0059 42.9368 24.8145 42.9368 24.6158C42.9368 21.9621 41.3713 20.2506 38.9455 20.2506C36.516 20.2506 34.9468 21.9621 34.9468 24.6158C34.9468 27.2732 36.516 28.9883 38.9455 28.9883C40.8913 28.9883 42.2537 27.9394 42.7374 26.1653H40.7104C40.3818 26.9272 39.7763 27.3431 38.9418 27.3431Z" fill="white"></path>
    <path d="M22.4339 0C12.8231 0 4.32729 5.81902 0.697846 14.1151L0.295396 15.1088H2.72118C2.88733 14.7739 3.19009 14.1114 3.19009 14.1114C6.66078 7.09986 14.1043 2.26356 22.4376 2.26356C34.1383 2.26356 45.178 12.0981 45.178 23.8134C45.178 35.5287 34.1419 44.756 22.4376 44.756C13.6834 44.756 5.85957 39.4118 2.62149 31.8187L0.188324 31.8261C3.55193 40.6926 12.4133 47.0159 22.4376 47.0159C35.3862 47.0159 45.7134 36.7728 45.9201 23.8134C46.1232 10.8025 35.3825 0 22.4339 0Z" fill="#C6D30D"></path>
    <path d="M22.5816 25.9445C22.5816 26.1874 22.5225 26.3899 22.4081 26.5518C22.2862 26.7248 22.1348 26.8683 21.9539 26.9787C21.7693 27.0928 21.5699 27.1738 21.3595 27.2217C20.9755 27.31 20.6764 27.3174 20.274 27.2511C20.1004 27.2217 19.938 27.1738 19.794 27.1039C19.6537 27.0376 19.5355 26.9456 19.4358 26.8279C19.3472 26.7211 19.3029 26.596 19.3029 26.434C19.3029 26.2353 19.3361 26.0623 19.4026 25.9261C19.469 25.7899 19.5577 25.6795 19.6684 25.5985C19.7903 25.5102 19.9306 25.4403 20.0856 25.3924C20.2555 25.3372 20.429 25.2967 20.6063 25.2673C20.9866 25.1973 21.3742 25.1421 21.7619 25.109C22.0684 25.0796 22.3416 25.0096 22.5779 24.9029V25.9445H22.5816ZM24.6455 23.0994C24.6455 23.0847 24.6455 23.0773 24.6455 23.0626V22.7645C24.6455 22.7498 24.6455 22.735 24.6418 22.7203C24.6418 22.6909 24.6381 22.6614 24.6345 22.632C24.6345 22.6173 24.6345 22.6025 24.6308 22.5915C24.5385 21.2849 23.0911 20.2396 21.3078 20.2212H21.1859C21.0899 20.2212 21.0013 20.2285 20.909 20.2396C19.0924 20.3758 17.6488 21.6309 17.5343 23.1877C17.5159 23.3129 17.5159 23.3865 17.5159 23.3865H17.5232H17.6414H19.5761L19.5909 23.1178C19.6278 22.735 19.7792 22.4627 20.0598 22.2823C20.4586 22.0284 21.0198 21.9437 21.725 22.0357C21.9022 22.0578 22.0647 22.1057 22.2087 22.1756C22.3453 22.2418 22.4597 22.3375 22.552 22.459C22.6407 22.5768 22.6813 22.724 22.6813 22.9191C22.6813 23.1325 22.6296 23.2871 22.5336 23.3865C22.4265 23.4932 22.2714 23.5779 22.0794 23.6294C21.869 23.6883 21.6216 23.7288 21.3447 23.7546C21.0493 23.7803 20.7392 23.8245 20.4327 23.8834C20.0561 23.9239 19.6795 23.9864 19.3177 24.0637C18.9411 24.141 18.594 24.2772 18.2875 24.4576C17.9737 24.6453 17.7152 24.9066 17.5232 25.2342C17.3313 25.5654 17.2316 25.9924 17.2316 26.5076C17.2316 26.9199 17.3128 27.2842 17.4716 27.5971C17.6303 27.9099 17.8482 28.1713 18.1177 28.3737C18.3835 28.5724 18.6937 28.727 19.0371 28.8264C19.3767 28.9258 19.7386 28.9773 20.1115 28.9773C20.5989 28.9773 21.1453 28.9957 21.6622 28.8375C21.6622 28.8375 22.397 28.6755 22.7108 28.4326V28.9736H24.6382V23.7877V23.0994H24.6455Z" fill="white"></path>
</svg>