<svg width="63" height="36" viewBox="0 0 63 36" fill="none" xmlns="http://www.w3.org/2000/svg">
    <g clip-path="url(#clip0_12_493)">
    <path fill-rule="evenodd" clip-rule="evenodd" d="M7.58596 9.71615V14.4307H11.4517V18.4014H7.58596V24.7135C7.58596 26.8045 8.1185 27.7621 9.71362 27.7621C10.4587 27.7621 10.8129 27.7266 11.31 27.6216L11.3454 31.6973C10.6699 31.9453 9.36069 32.1578 7.87057 32.1578C6.13252 32.1578 4.68035 31.5569 3.79361 30.6689C2.80188 29.6418 2.30475 27.9733 2.30475 25.5281V18.3988H0V14.4281H2.30349V11.1683L7.58596 9.71362V9.71615Z" fill="#FFFFFF"></path>
    <path fill-rule="evenodd" clip-rule="evenodd" d="M29.3799 27.5862C29.3799 29.2155 29.4508 30.8119 29.662 31.7694H24.8046L24.4845 30.0314H24.3783C23.2449 31.4153 21.4714 32.1578 19.4146 32.1578C15.9018 32.1578 13.8121 29.6051 13.8121 26.8399C13.8121 22.3366 17.8536 20.209 23.9874 20.209V19.9965C23.9874 19.0743 23.4928 17.7626 20.8326 17.7626C19.0591 17.7626 17.1807 18.3647 16.046 19.0389L15.053 15.5995C16.2573 14.9253 18.6341 14.0398 21.7902 14.0398C27.5685 14.0398 29.3774 17.4438 29.3774 21.5195V27.5837L29.3799 27.5862ZM24.167 23.5788C21.331 23.5788 19.1325 24.2531 19.1325 26.3099C19.1325 27.6925 20.0534 28.3654 21.2589 28.3654C22.5707 28.3654 23.7053 27.48 24.0608 26.3795C24.1316 26.0974 24.167 25.7773 24.167 25.4598V23.5801V23.5788Z" fill="#FFFFFF"></path>
    <path fill-rule="evenodd" clip-rule="evenodd" d="M51.2624 35.8818C48.1215 34.9673 45.5056 33.9844 42.5266 32.7726C42.0358 32.5777 41.5134 32.4791 41.0213 32.4462C36.0159 32.1186 31.3697 28.4552 31.3697 21.2564C31.3697 14.6141 35.558 9.67314 42.1661 9.67314C48.7743 9.67314 52.5704 14.7773 52.5704 20.7985C52.5704 25.8039 50.2479 29.3382 47.3676 30.6462V30.7764C49.0374 31.2673 50.9348 31.6594 52.6678 32.0199L51.2612 35.8806L51.2624 35.8818ZM42.0029 28.4881C45.3728 28.4881 47.3044 25.3131 47.3044 20.9945C47.3044 16.9707 45.4069 13.6337 42.0029 13.6337C38.5989 13.6337 36.6383 16.9365 36.6383 21.0932C36.6383 25.2498 38.6344 28.4881 41.9726 28.4881H42.0042H42.0029Z" fill="#FFFFFF"></path>
    <path d="M60.3638 14.0663H54.9738V31.7694H60.3638V14.0663Z" fill="#FFFFFF"></path>
    <path fill-rule="evenodd" clip-rule="evenodd" d="M57.6695 0C54.7221 0 52.3351 2.38951 52.3351 5.33433C52.3351 8.27916 54.7234 10.6674 57.6695 10.6674C60.6156 10.6674 63 8.27916 63 5.33433C63 2.38951 60.613 0 57.6695 0ZM57.6707 7.79341C56.3109 7.79341 55.2079 6.69163 55.2079 5.3318C55.2079 3.97197 56.3109 2.87272 57.6707 2.87272C59.0306 2.87272 60.1298 3.97703 60.1298 5.3318C60.1298 6.68657 59.0293 7.79341 57.6707 7.79341Z" fill="#FFFFFF"></path>
    </g>
    <defs>
    <clipPath id="clip0_12_493">
        <rect width="63" height="35.8818" fill="white"></rect>
    </clipPath>
    </defs>
</svg>